<svg width="38" height="38" viewBox="0 0 38 38" fill="none" xmlns="http://www.w3.org/2000/svg">
<path d="M19.0117 1.25244C15.3784 9.22776 9.48217 7.25674 8.67215 3.99631C4.38082 7.14511 1.58203 12.2103 1.58203 17.9168C1.58188 27.4596 9.36966 35.2053 18.9653 35.2053C28.561 35.2053 36.3488 27.4596 36.3488 17.9168C36.3488 12.2555 33.5825 7.24063 29.349 4.08663C28.5126 7.20887 23.5402 9.09588 19.0119 1.25244H19.0117ZM9.99636 9.98465C10.7035 9.97708 11.4919 10.1348 12.26 10.4671C14.1511 11.2853 15.1989 12.8624 14.5979 13.9902C13.9971 15.1181 11.9758 15.3696 10.0847 14.5515C8.19359 13.7335 7.14807 12.154 7.74902 11.0262C8.10586 10.3565 8.96309 9.996 9.99636 9.98472V9.98465ZM28.4746 10.073C29.581 10.0458 30.5112 10.4093 30.8867 11.1143C31.4877 12.2421 30.4399 13.8192 28.5488 14.6374C26.6577 15.4553 24.6387 15.2039 24.0378 14.076C23.4368 12.9482 24.4822 11.3711 26.3733 10.5529C27.0825 10.2462 27.8108 10.089 28.4746 10.0729V10.073ZM11.2628 16.9636L15.215 23.5065L19.2599 17.7545L22.2612 23.7336L27.1155 17.0587L29.6992 22.1983L35.145 17.5341C35.0554 21.7069 32.3061 27.4525 28.927 29.8057L27.1944 24.7566L23.0289 31.6728L18.838 25.0186L13.6357 31.2229L9.68353 24.4155L8.3916 29.191C4.9503 26.2089 3.26977 21.7729 3.42585 17.4205L7.44531 22.4812L11.2629 16.9634L11.2628 16.9636Z" fill="white"/>
</svg>
